<svg width="40" height="40" viewBox="0 0 40 40" fill="none" xmlns="http://www.w3.org/2000/svg">
<path d="M6.62833 16.3997C6.69537 15.5644 7.07459 14.7849 7.69045 14.2166C8.30632 13.6483 9.11365 13.3328 9.95166 13.333H30.0483C30.8863 13.3328 31.6937 13.6483 32.3095 14.2166C32.9254 14.7849 33.3046 15.5644 33.3717 16.3997L34.71 33.0663C34.7468 33.525 34.6883 33.9863 34.538 34.4212C34.3878 34.8561 34.1492 35.2553 33.8372 35.5934C33.5251 35.9316 33.1465 36.2015 32.725 36.3862C32.3036 36.5708 31.8485 36.6662 31.3883 36.6663H8.61166C8.15153 36.6662 7.69641 36.5708 7.27496 36.3862C6.85351 36.2015 6.47485 35.9316 6.16282 35.5934C5.8508 35.2553 5.61216 34.8561 5.46195 34.4212C5.31173 33.9863 5.25319 33.525 5.29 33.0663L6.62833 16.3997V16.3997Z" stroke="black" stroke-width="2" stroke-linecap="round" stroke-linejoin="round"/>
<path d="M26.6667 18.333V9.99968C26.6667 8.23157 25.9643 6.53587 24.714 5.28563C23.4638 4.03539 21.7681 3.33301 20 3.33301C18.2319 3.33301 16.5362 4.03539 15.2859 5.28563C14.0357 6.53587 13.3333 8.23157 13.3333 9.99968V18.333" stroke="black" stroke-width="2" stroke-linecap="round" stroke-linejoin="round"/>
</svg>
