<svg width="261" height="140" viewBox="0 0 261 140" fill="none" xmlns="http://www.w3.org/2000/svg">
<g filter="url(#filter0_dd_5603_4464)">
<rect x="40.5" y="20" width="180" height="60" rx="7" fill="white"/>
<path d="M162.789 48.8015V52.2381H160.635V54.4917H162.789V62.1492C162.789 64.7639 163.972 65.8098 166.948 65.8098C167.471 65.8098 167.969 65.7476 168.404 65.6729V63.4441C168.031 63.4815 167.794 63.5064 167.383 63.5064C166.051 63.5064 165.466 62.8838 165.466 61.4644V54.4917H168.404V52.2381H165.466V48.8015H162.789Z" fill="#212121"/>
<path d="M175.985 65.9966C179.945 65.9966 182.373 63.3445 182.373 58.9492C182.373 54.5789 179.932 51.9143 175.985 51.9143C172.026 51.9143 169.585 54.5789 169.585 58.9492C169.585 63.3445 172.013 65.9966 175.985 65.9966ZM175.985 63.6184C173.657 63.6184 172.35 61.9126 172.35 58.9492C172.35 56.0108 173.657 54.2925 175.985 54.2925C178.301 54.2925 179.621 56.0108 179.621 58.9492C179.621 61.9002 178.301 63.6184 175.985 63.6184Z" fill="#212121"/>
<path d="M184.45 65.7351H187.127V57.729C187.127 55.824 188.559 54.5415 190.588 54.5415C191.062 54.5415 191.859 54.6287 192.083 54.7034V52.0637C191.796 51.989 191.286 51.9517 190.887 51.9517C189.119 51.9517 187.613 52.9229 187.227 54.2551H187.027V52.1758H184.45V65.7351Z" fill="#212121"/>
<path d="M198.73 54.1929C200.709 54.1929 202.004 55.575 202.066 57.7041H195.218C195.368 55.5874 196.75 54.1929 198.73 54.1929ZM202.054 62.0745C201.556 63.1328 200.448 63.718 198.829 63.718C196.688 63.718 195.305 62.2114 195.218 59.8333V59.6839H204.793V58.75C204.793 54.4917 202.515 51.9143 198.742 51.9143C194.92 51.9143 192.492 54.666 192.492 58.999C192.492 63.3321 194.87 65.9966 198.754 65.9966C201.855 65.9966 204.021 64.5025 204.631 62.0745H202.054Z" fill="#212121"/>
<path d="M145.234 60.7279C145.44 64.0574 148.215 66.1868 152.344 66.1868C156.758 66.1868 159.52 63.9542 159.52 60.3923C159.52 57.5919 157.945 56.0433 154.125 55.1528L152.073 54.6495C149.647 54.0817 148.666 53.3203 148.666 51.991C148.666 50.3133 150.189 49.2164 152.473 49.2164C154.642 49.2164 156.139 50.2875 156.41 52.0039H159.223C159.055 48.8679 156.293 46.6611 152.512 46.6611C148.447 46.6611 145.737 48.8679 145.737 52.1846C145.737 54.9205 147.273 56.5466 150.641 57.3338L153.041 57.9145C155.506 58.4953 156.59 59.347 156.59 60.7666C156.59 62.4185 154.887 63.6187 152.564 63.6187C150.073 63.6187 148.344 62.4959 148.099 60.7279H145.234Z" fill="#212121"/>
<path d="M117.503 51.9517C115.66 51.9517 114.066 52.8731 113.244 54.417H113.045V52.1758H110.468V70.2425H113.145V63.6807H113.356C114.066 65.1126 115.598 65.9592 117.528 65.9592C120.952 65.9592 123.131 63.2573 123.131 58.9492C123.131 54.6411 120.952 51.9517 117.503 51.9517ZM116.743 63.5562C114.502 63.5562 113.095 61.7881 113.095 58.9617C113.095 56.1228 114.502 54.3548 116.756 54.3548C119.022 54.3548 120.379 56.0855 120.379 58.9492C120.379 61.8255 119.022 63.5562 116.743 63.5562Z" fill="#212121"/>
<path d="M132.498 51.9517C130.655 51.9517 129.061 52.8731 128.24 54.417H128.04V52.1758H125.463V70.2425H128.14V63.6807H128.352C129.061 65.1126 130.593 65.9592 132.523 65.9592C135.947 65.9592 138.126 63.2573 138.126 58.9492C138.126 54.6411 135.947 51.9517 132.498 51.9517ZM131.738 63.5562C129.497 63.5562 128.09 61.7881 128.09 58.9617C128.09 56.1228 129.497 54.3548 131.751 54.3548C134.017 54.3548 135.374 56.0855 135.374 58.9492C135.374 61.8255 134.017 63.5562 131.738 63.5562Z" fill="#212121"/>
<path d="M105.665 65.7351H108.736L102.013 47.1128H98.9024L92.1787 65.7351H95.1469L96.8633 60.7924H103.961L105.665 65.7351ZM100.309 50.494H100.528L103.226 58.3662H97.5989L100.309 50.494Z" fill="#212121"/>
<path d="M93.9766 33.066V42.0496H97.2201C99.8971 42.0496 101.447 40.3998 101.447 37.5298C101.447 34.7034 99.8846 33.066 97.2201 33.066H93.9766ZM95.3711 34.3361H97.0645C98.9259 34.3361 100.028 35.5189 100.028 37.5485C100.028 39.6091 98.9446 40.7795 97.0645 40.7795H95.3711V34.3361Z" fill="#616161"/>
<path d="M106.195 42.1803C108.175 42.1803 109.389 40.8542 109.389 38.6566C109.389 36.4714 108.168 35.1392 106.195 35.1392C104.215 35.1392 102.995 36.4714 102.995 38.6566C102.995 40.8542 104.209 42.1803 106.195 42.1803ZM106.195 40.9912C105.031 40.9912 104.377 40.1383 104.377 38.6566C104.377 37.1874 105.031 36.3282 106.195 36.3282C107.353 36.3282 108.013 37.1874 108.013 38.6566C108.013 40.1321 107.353 40.9912 106.195 40.9912Z" fill="#616161"/>
<path d="M119.727 35.2699H118.388L117.181 40.4434H117.075L115.68 35.2699H114.398L113.003 40.4434H112.904L111.69 35.2699H110.332L112.2 42.0496H113.576L114.97 37.0566H115.076L116.477 42.0496H117.865L119.727 35.2699Z" fill="#616161"/>
<path d="M121.268 42.0496H122.607V38.0839C122.607 37.0255 123.236 36.3656 124.225 36.3656C125.215 36.3656 125.688 36.9072 125.688 37.9967V42.0496H127.027V37.6605C127.027 36.0481 126.193 35.1392 124.68 35.1392C123.659 35.1392 122.987 35.5936 122.657 36.3469H122.557V35.2699H121.268V42.0496Z" fill="#616161"/>
<path d="M129.135 42.0496H130.473V32.624H129.135V42.0496Z" fill="#616161"/>
<path d="M135.507 42.1803C137.487 42.1803 138.701 40.8542 138.701 38.6566C138.701 36.4714 137.481 35.1392 135.507 35.1392C133.528 35.1392 132.307 36.4714 132.307 38.6566C132.307 40.8542 133.521 42.1803 135.507 42.1803ZM135.507 40.9912C134.343 40.9912 133.69 40.1383 133.69 38.6566C133.69 37.1874 134.343 36.3282 135.507 36.3282C136.665 36.3282 137.325 37.1874 137.325 38.6566C137.325 40.1321 136.665 40.9912 135.507 40.9912Z" fill="#616161"/>
<path d="M142.689 41.0348C141.961 41.0348 141.432 40.6799 141.432 40.0698C141.432 39.4722 141.855 39.1547 142.789 39.0924L144.445 38.9866V39.5531C144.445 40.3936 143.698 41.0348 142.689 41.0348ZM142.347 42.1616C143.237 42.1616 143.978 41.7756 144.383 41.097H144.488V42.0496H145.777V37.4177C145.777 35.9858 144.818 35.1392 143.119 35.1392C141.581 35.1392 140.485 35.8862 140.348 37.0504H141.643C141.793 36.571 142.31 36.2971 143.057 36.2971C143.972 36.2971 144.445 36.7018 144.445 37.4177V38.0029L142.608 38.1088C140.996 38.2084 140.087 38.9119 140.087 40.1321C140.087 41.371 141.039 42.1616 142.347 42.1616Z" fill="#616161"/>
<path d="M150.319 42.1616C151.253 42.1616 152.044 41.7196 152.449 40.9788H152.554V42.0496H153.837V32.624H152.498V36.3469H152.399C152.031 35.5999 151.247 35.1578 150.319 35.1578C148.607 35.1578 147.505 36.515 147.505 38.6566C147.505 40.8044 148.595 42.1616 150.319 42.1616ZM150.699 36.3594C151.82 36.3594 152.523 37.2496 152.523 38.6628C152.523 40.0823 151.826 40.9601 150.699 40.9601C149.566 40.9601 148.887 40.0947 148.887 38.6566C148.887 37.231 149.572 36.3594 150.699 36.3594Z" fill="#616161"/>
<path d="M162.517 42.1803C164.496 42.1803 165.71 40.8542 165.71 38.6566C165.71 36.4714 164.49 35.1392 162.517 35.1392C160.537 35.1392 159.317 36.4714 159.317 38.6566C159.317 40.8542 160.531 42.1803 162.517 42.1803ZM162.517 40.9912C161.352 40.9912 160.699 40.1383 160.699 38.6566C160.699 37.1874 161.352 36.3282 162.517 36.3282C163.674 36.3282 164.334 37.1874 164.334 38.6566C164.334 40.1321 163.674 40.9912 162.517 40.9912Z" fill="#616161"/>
<path d="M167.482 42.0496H168.821V38.0839C168.821 37.0255 169.449 36.3656 170.439 36.3656C171.429 36.3656 171.902 36.9072 171.902 37.9967V42.0496H173.241V37.6605C173.241 36.0481 172.406 35.1392 170.894 35.1392C169.873 35.1392 169.2 35.5936 168.87 36.3469H168.771V35.2699H167.482V42.0496Z" fill="#616161"/>
<path d="M179.405 33.5828V35.301H178.328V36.4279H179.405V40.2566C179.405 41.564 179.997 42.0869 181.485 42.0869C181.746 42.0869 181.995 42.0558 182.213 42.0184V40.9041C182.026 40.9227 181.908 40.9352 181.703 40.9352C181.036 40.9352 180.744 40.6239 180.744 39.9142V36.4279H182.213V35.301H180.744V33.5828H179.405Z" fill="#616161"/>
<path d="M184.01 42.0496H185.348V38.0901C185.348 37.0629 185.958 36.3718 187.054 36.3718C188 36.3718 188.505 36.9197 188.505 38.0029V42.0496H189.843V37.673C189.843 36.0605 188.953 35.1454 187.509 35.1454C186.488 35.1454 185.772 35.5999 185.442 36.3594H185.336V32.624H184.01V42.0496Z" fill="#616161"/>
<path d="M194.672 36.2784C195.662 36.2784 196.309 36.9695 196.34 38.0341H192.916C192.991 36.9757 193.682 36.2784 194.672 36.2784ZM196.334 40.2192C196.085 40.7484 195.531 41.041 194.721 41.041C193.651 41.041 192.96 40.2877 192.916 39.0986V39.0239H197.704V38.557C197.704 36.4279 196.564 35.1392 194.678 35.1392C192.767 35.1392 191.553 36.515 191.553 38.6815C191.553 40.848 192.742 42.1803 194.684 42.1803C196.234 42.1803 197.318 41.4332 197.623 40.2192H196.334Z" fill="#616161"/>
<path d="M77.6535 50.4516C77.686 47.9301 79.0401 45.5442 81.1883 44.2235C79.8331 42.288 77.5632 41.0609 75.2016 40.987C72.6827 40.7226 70.2408 42.4942 68.9572 42.4942C67.6488 42.4942 65.6726 41.0132 63.5445 41.057C60.7706 41.1466 58.1847 42.7237 56.8351 45.1488C53.9341 50.1715 56.098 57.553 58.8769 61.6129C60.2673 63.601 61.8922 65.8216 64.0184 65.7429C66.0989 65.6566 66.876 64.4162 69.3875 64.4162C71.8756 64.4162 72.6046 65.7429 74.774 65.6928C77.0065 65.6566 78.4131 63.696 79.7547 61.6891C80.7537 60.2726 81.5224 58.707 82.0323 57.0503C79.4087 55.9407 77.6566 53.3003 77.6535 50.4516Z" fill="#F17228"/>
<path d="M73.556 38.317C74.7733 36.8557 75.373 34.9774 75.2278 33.0811C73.368 33.2764 71.6501 34.1652 70.4164 35.5705C69.21 36.9435 68.5821 38.7887 68.7008 40.6126C70.5613 40.6317 72.3902 39.767 73.556 38.317Z" fill="#F17228"/>
</g>
<defs>
<filter id="filter0_dd_5603_4464" x="0.5" y="0" width="260" height="140" filterUnits="userSpaceOnUse" color-interpolation-filters="sRGB">
<feFlood flood-opacity="0" result="BackgroundImageFix"/>
<feColorMatrix in="SourceAlpha" type="matrix" values="0 0 0 0 0 0 0 0 0 0 0 0 0 0 0 0 0 0 127 0" result="hardAlpha"/>
<feOffset dy="20"/>
<feGaussianBlur stdDeviation="20"/>
<feColorMatrix type="matrix" values="0 0 0 0 1 0 0 0 0 0.680498 0 0 0 0 0 0 0 0 0.29 0"/>
<feBlend mode="normal" in2="BackgroundImageFix" result="effect1_dropShadow_5603_4464"/>
<feColorMatrix in="SourceAlpha" type="matrix" values="0 0 0 0 0 0 0 0 0 0 0 0 0 0 0 0 0 0 127 0" result="hardAlpha"/>
<feOffset dy="5"/>
<feGaussianBlur stdDeviation="5"/>
<feColorMatrix type="matrix" values="0 0 0 0 1 0 0 0 0 0.680498 0 0 0 0 0 0 0 0 0.26 0"/>
<feBlend mode="normal" in2="effect1_dropShadow_5603_4464" result="effect2_dropShadow_5603_4464"/>
<feBlend mode="normal" in="SourceGraphic" in2="effect2_dropShadow_5603_4464" result="shape"/>
</filter>
</defs>
</svg>
