<svg width="30" height="30" viewBox="0 0 30 30" fill="none" xmlns="http://www.w3.org/2000/svg">
<g clip-path="url(#clip0_5603_5401)">
<path d="M15 0C10.9228 0 10.4147 0.0196875 8.81907 0.0871875C7.21688 0.165937 6.13313 0.414375 5.17688 0.785625C4.17606 1.16346 3.26969 1.75501 2.52094 2.51906C1.75476 3.26606 1.16287 4.17294 0.787502 5.175C0.416252 6.13125 0.167814 7.215 0.0890643 8.81719C0.0168768 10.4137 0.00187683 10.9209 0.00187683 14.9981C0.00187683 19.0753 0.0215643 19.5834 0.0890643 21.1791C0.167814 22.7766 0.416252 23.865 0.787502 24.8212C1.16533 25.8221 1.75689 26.7284 2.52094 27.4772C3.26794 28.2434 4.17481 28.8353 5.17688 29.2106C6.13313 29.5772 7.22156 29.8303 8.81907 29.9091C10.4156 29.9813 10.9228 29.9963 15 29.9963C19.0772 29.9963 19.5853 29.9766 21.1809 29.9091C22.7784 29.8303 23.8669 29.5763 24.8231 29.2106C25.8239 28.8328 26.7303 28.2412 27.4791 27.4772C28.2462 26.731 28.8383 25.8239 29.2125 24.8212C29.5791 23.865 29.8322 22.7766 29.9109 21.1791C29.9831 19.5825 29.9981 19.0753 29.9981 14.9981C29.9981 10.9209 29.9784 10.4128 29.9109 8.81719C29.8322 7.21969 29.5781 6.12563 29.2125 5.175C28.8347 4.17418 28.2431 3.26781 27.4791 2.51906C26.7329 1.7519 25.8258 1.15986 24.8231 0.785625C23.8669 0.414375 22.7784 0.165937 21.1809 0.0871875C19.5844 0.015 19.0772 0 15 0ZM15 2.7C19.0041 2.7 19.4822 2.71969 21.0647 2.78719C22.5244 2.85563 23.3194 3.09938 23.8472 3.30562C24.4997 3.54649 25.0903 3.92986 25.5759 4.42781C26.073 4.9114 26.455 5.50064 26.6934 6.15188C26.8997 6.67969 27.1434 7.47469 27.2119 8.93437C27.2794 10.5169 27.2991 10.9959 27.2991 14.9991C27.2991 19.0022 27.2794 19.4813 27.2063 21.0638C27.1275 22.5234 26.8838 23.3184 26.6784 23.8463C26.3944 24.5503 26.0775 25.0425 25.5544 25.575C25.0671 26.0698 24.4769 26.4514 23.8256 26.6925C23.3044 26.8988 22.4981 27.1425 21.0328 27.2109C19.4419 27.2784 18.9731 27.2981 14.9588 27.2981C10.9444 27.2981 10.4766 27.2784 8.88375 27.2053C7.42406 27.1266 6.61875 26.8828 6.09094 26.6775C5.37844 26.3934 4.89 26.0766 4.36688 25.5534C3.83906 25.0256 3.50344 24.5231 3.24469 23.8247C3.03469 23.3034 2.79469 22.4972 2.71688 21.0319C2.66344 19.4597 2.63813 18.9722 2.63813 14.9766C2.63813 10.9828 2.66344 10.4944 2.71688 8.9025C2.79469 7.43719 3.03469 6.63281 3.24469 6.10969C3.50344 5.39625 3.84 4.90875 4.36688 4.38094C4.88906 3.85875 5.37844 3.52125 6.09094 3.25688C6.61875 3.05156 7.40438 2.80781 8.86969 2.73469C10.4606 2.6775 10.9294 2.65688 14.9381 2.65688L15 2.7ZM15 7.30031C13.9888 7.29994 12.9874 7.49885 12.053 7.88566C11.1187 8.27248 10.2697 8.83962 9.55468 9.55468C8.83962 10.2697 8.27248 11.1187 7.88567 12.053C7.49885 12.9874 7.29995 13.9888 7.30031 15C7.29995 16.0112 7.49885 17.0126 7.88567 17.947C8.27248 18.8813 8.83962 19.7303 9.55468 20.4453C10.2697 21.1604 11.1187 21.7275 12.053 22.1143C12.9874 22.5012 13.9888 22.7001 15 22.6997C16.0112 22.7001 17.0126 22.5012 17.947 22.1143C18.8813 21.7275 19.7303 21.1604 20.4453 20.4453C21.1604 19.7303 21.7275 18.8813 22.1143 17.947C22.5012 17.0126 22.7001 16.0112 22.6997 15C22.7001 13.9888 22.5012 12.9874 22.1143 12.053C21.7275 11.1187 21.1604 10.2697 20.4453 9.55468C19.7303 8.83962 18.8813 8.27248 17.947 7.88566C17.0126 7.49885 16.0112 7.29994 15 7.30031ZM15 19.9997C12.2363 19.9997 10.0003 17.7638 10.0003 15C10.0003 12.2362 12.2363 10.0003 15 10.0003C17.7638 10.0003 19.9997 12.2362 19.9997 15C19.9997 17.7638 17.7638 19.9997 15 19.9997ZM24.81 6.99281C24.8095 7.47062 24.6193 7.92869 24.2813 8.26638C23.9433 8.60407 23.485 8.79375 23.0072 8.79375C22.7709 8.79375 22.537 8.74722 22.3187 8.65681C22.1004 8.56639 21.9021 8.43388 21.7351 8.26682C21.568 8.09976 21.4355 7.90143 21.3451 7.68316C21.2547 7.46489 21.2081 7.23094 21.2081 6.99469C21.2081 6.75843 21.2547 6.52449 21.3451 6.30622C21.4355 6.08794 21.568 5.88962 21.7351 5.72256C21.9021 5.5555 22.1004 5.42298 22.3187 5.33257C22.537 5.24216 22.7709 5.19562 23.0072 5.19562C23.9981 5.19562 24.81 6.00187 24.81 6.99281Z" fill="black"/>
</g>
<defs>
<clipPath id="clip0_5603_5401">
<rect width="30" height="30" fill="white"/>
</clipPath>
</defs>
</svg>
