<svg width="80" height="80" viewBox="0 0 80 80" fill="none" xmlns="http://www.w3.org/2000/svg">
<circle cx="40" cy="40" r="38" stroke="white" stroke-opacity="0.7" stroke-width="4"/>
<path d="M39.805 25.0117L40 25C40.4082 25.0001 40.8022 25.1499 41.1073 25.4212C41.4123 25.6925 41.6072 26.0662 41.655 26.4717L41.6667 26.6667V38.3333H53.3333C53.7416 38.3334 54.1356 38.4833 54.4406 38.7545C54.7457 39.0258 54.9406 39.3996 54.9883 39.805L55 40C54.9999 40.4082 54.8501 40.8022 54.5788 41.1073C54.3075 41.4123 53.9338 41.6072 53.5283 41.655L53.3333 41.6667H41.6667V53.3333C41.6666 53.7416 41.5167 54.1356 41.2455 54.4406C40.9742 54.7457 40.6004 54.9406 40.195 54.9883L40 55C39.5918 54.9999 39.1978 54.8501 38.8927 54.5788C38.5877 54.3075 38.3928 53.9338 38.345 53.5283L38.3333 53.3333V41.6667H26.6667C26.2584 41.6666 25.8644 41.5167 25.5594 41.2455C25.2543 40.9742 25.0594 40.6004 25.0117 40.195L25 40C25.0001 39.5918 25.1499 39.1978 25.4212 38.8927C25.6925 38.5877 26.0662 38.3928 26.4717 38.345L26.6667 38.3333H38.3333V26.6667C38.3334 26.2584 38.4833 25.8644 38.7545 25.5594C39.0258 25.2543 39.3996 25.0594 39.805 25.0117L40 25L39.805 25.0117Z" fill="white" fill-opacity="0.7"/>
</svg>
