<svg width="50" height="50" viewBox="0 0 50 50" fill="none" xmlns="http://www.w3.org/2000/svg">
<path d="M49.5555 38.2663C48.5773 39.8656 46.1836 41.0033 46.1836 41.0033L28.3837 49.2874V43.1776L41.4836 37.1326C42.9711 36.4442 43.1992 35.4644 41.9899 34.9542C40.7836 34.44 38.5993 34.5898 37.1149 35.2782L28.3837 39.2623V32.9217L28.8869 32.703C28.8869 32.703 31.4087 31.5451 34.9556 31.0349C38.5024 30.5288 42.8461 31.1037 46.2555 32.7759C50.0992 34.355 50.5304 36.671 49.5555 38.2663ZM30.0775 27.8687V12.2399C30.0775 10.4057 29.8181 8.7173 28.49 8.23953C27.4712 7.8144 26.84 9.04122 26.84 10.8713V50L18.6963 46.6516V0C22.1588 0.834076 27.2025 2.80185 29.915 3.98818C36.8118 7.0532 39.1493 10.8713 39.1493 19.4753C39.1493 27.8606 35.1556 31.0389 30.0775 27.8646V27.8687ZM3.75266 42.546C-0.191064 41.0964 -0.847309 38.1003 0.949553 36.3754C2.61204 34.7801 5.43702 33.5817 5.43702 33.5817L17.1151 28.1966V34.3307L8.70887 38.2298C7.22763 38.9181 6.99951 39.8939 8.20575 40.4081C9.41199 40.9183 11.5964 40.7725 13.0807 40.0842L17.1119 38.1853V43.6756L16.3088 43.8497C12.1033 44.7319 7.79543 44.2832 3.75266 42.5419V42.546Z" fill="url(#paint0_linear_5603_5385)"/>
<defs>
<linearGradient id="paint0_linear_5603_5385" x1="0" y1="25" x2="50" y2="25" gradientUnits="userSpaceOnUse">
<stop stop-color="#FFCC17"/>
<stop offset="0.5" stop-color="#1796CC"/>
<stop offset="1" stop-color="#E90154"/>
</linearGradient>
</defs>
</svg>
