<svg width="51" height="57" viewBox="0 0 51 57" fill="none" xmlns="http://www.w3.org/2000/svg">
<path d="M50.9109 32.1077C50.9109 30.1434 49.3148 28.5538 47.3423 28.5538H43.7737V25C43.7737 16.4196 37.6355 9.24154 29.4993 7.59042V3.67692C29.4993 1.71259 27.9032 0.123075 25.9307 0.123075C23.9582 0.123075 22.3621 1.71259 22.3621 3.67692V7.59042C14.2259 9.24154 8.0877 16.4196 8.0877 25V28.5538H4.5191C2.54661 28.5538 0.950497 30.1434 0.950497 32.1077C0.950497 34.072 2.54661 35.6615 4.5191 35.6615H47.3423C49.3148 35.6615 50.9109 34.072 50.9109 32.1077ZM40.2051 49.8769H11.6563C9.68381 49.8769 8.0877 51.4664 8.0877 53.4308C8.0877 55.3951 9.68381 56.9846 11.6563 56.9846H40.2051C42.1776 56.9846 43.7737 55.3951 43.7737 53.4308C43.7737 51.4664 42.1776 49.8769 40.2051 49.8769Z" fill="white"/>
</svg>
