<svg width="136" height="136" viewBox="0 0 136 136" fill="none" xmlns="http://www.w3.org/2000/svg">
<g clip-path="url(#clip0_5603_4416)">
<path d="M131.601 74.2657L79.7896 18.1484C76.885 15.0022 72.5512 13.6121 68.3588 14.4667L62.2099 15.728L39.5525 20.3668L39.1123 20.4553C38.889 20.5006 38.6704 20.5518 38.4541 20.6097C38.3407 20.6401 38.2251 20.6746 38.109 20.7096C35.6996 21.4179 33.5998 22.8418 32.0614 24.7525C31.0659 25.9839 30.3018 27.4181 29.8399 28.9925L21.3869 57.8454C20.1822 61.964 21.2206 66.4162 24.1348 69.5711L75.926 125.668C78.5707 128.53 82.1298 130.039 85.735 130.167C88.6755 130.273 91.6493 129.458 94.1867 127.703C94.7272 127.33 95.249 126.914 95.7487 126.456L100.37 122.188L130.808 94.0862C136.501 88.8309 136.855 79.9558 131.601 74.2657ZM52.4706 50.9226C52.3533 51.116 52.2371 51.302 52.1127 51.4824C52.0605 51.5627 52.0017 51.6447 51.9443 51.7189C51.7569 51.968 51.5558 52.2058 51.3464 52.4278C51.2754 52.5056 51.2066 52.5794 51.1326 52.647C51.0616 52.7249 50.985 52.7971 50.9103 52.8611C48.3617 55.1932 44.502 55.7231 41.3487 53.9027C37.4498 51.6489 36.117 46.6749 38.3685 42.7805C40.4169 39.2276 44.7335 37.8058 48.4374 39.2911C48.6848 39.3903 48.936 39.5034 49.1841 39.6322C49.2843 39.69 49.386 39.7401 49.4908 39.8006C53.3842 42.0482 54.7169 47.0221 52.4706 50.9226Z" fill="#E8E8E8"/>
<path d="M75.9259 125.667C78.5705 128.529 82.1297 130.039 85.7349 130.166C88.6754 130.273 91.6491 129.457 94.1865 127.703C94.727 127.329 95.2489 126.914 95.7485 126.456L100.37 122.187L130.807 94.0855C136.501 88.8305 136.855 79.9554 131.601 74.2653L107.397 48.0494L77.4052 30.7338C76.3053 29.9541 75.0711 29.3476 73.7377 28.961L67.7055 27.2147L45.0611 20.6611C43.2037 20.1237 41.2847 20.0477 39.4495 20.3866L39.1432 20.4483C39.0487 20.4681 38.9545 20.4914 38.8604 20.5136C38.7411 20.5406 38.6207 20.5666 38.5036 20.5974C38.2927 20.6539 38.0841 20.7192 37.876 20.787C37.7916 20.8138 37.7081 20.843 37.6247 20.8714C35.8602 21.4897 34.2292 22.5111 32.8818 23.9039L32.0573 24.7565C31.0637 25.9868 30.3008 27.4194 29.8394 28.9917L21.3865 57.8446C20.1817 61.9631 21.2201 66.4154 24.1343 69.5703L75.9259 125.667ZM38.368 42.7797C40.4165 39.2267 44.733 37.805 48.4369 39.2903C48.6844 39.3895 48.9355 39.5026 49.1837 39.6314C49.2839 39.6892 49.3855 39.7393 49.4903 39.7997C53.3841 42.0478 54.7167 47.0212 52.4705 50.922C52.3532 51.1154 52.2369 51.3013 52.1126 51.4818C52.0604 51.562 52.0015 51.6441 51.9441 51.7183C51.7568 51.9673 51.5557 52.2052 51.3462 52.4271C51.2752 52.505 51.2064 52.5787 51.1324 52.6464C51.0614 52.7243 50.9848 52.7965 50.9101 52.8605C48.3615 55.1925 44.5018 55.7224 41.3485 53.9021C37.4496 51.6482 36.1168 46.6743 38.368 42.7797Z" fill="url(#paint0_linear_5603_4416)"/>
<path d="M80.048 34.5189L74.6733 31.2709L54.4967 19.08C50.6239 16.7412 45.7741 16.733 41.8934 19.0601L16.1099 34.5269C12.4294 36.7335 10.1748 40.7104 10.1748 45.0037V121.354C10.1748 129.1 16.4544 135.379 24.2038 135.379H71.922C79.6676 135.379 85.947 129.1 85.947 121.354V44.9755C85.9473 40.6942 83.7083 36.7335 80.048 34.5189ZM42.3059 50.2262C39.1258 47.0421 39.1258 41.8919 42.3059 38.7121C45.2054 35.8125 49.7428 35.5565 52.9349 37.9471C53.1511 38.1073 53.3633 38.2837 53.5676 38.4717C53.6515 38.5517 53.7357 38.6279 53.8199 38.7121C56.9997 41.8919 56.9997 47.0424 53.8199 50.2262C53.6597 50.3823 53.4993 50.5345 53.3314 50.6748C53.2594 50.7388 53.1832 50.8031 53.1072 50.8591C52.8629 51.0514 52.6068 51.2315 52.3462 51.3917C52.2583 51.4478 52.1699 51.5001 52.0819 51.5479C51.994 51.604 51.9016 51.652 51.8136 51.6961C48.7457 53.2899 44.8811 52.8014 42.3059 50.2262Z" fill="#FDC347"/>
<path d="M85.9474 121.354C85.9474 121.354 85.9474 121.017 85.9474 120.393L38.8999 73.3576C37.0745 71.898 34.6578 71.167 31.6488 71.167C25.0393 71.167 21.7344 74.2118 21.7344 80.3016V91.2926C21.7344 94.5893 22.7116 96.9857 24.6488 98.4977L61.5306 135.379H71.9224C79.6677 135.379 85.9474 129.1 85.9474 121.354Z" fill="url(#paint1_linear_5603_4416)"/>
<path d="M63.6492 69.0876C63.0002 68.5433 62.2777 68.2705 61.4793 68.2705C60.3931 68.2705 59.6528 68.7162 59.2581 69.6074L32.094 124.174C31.8969 124.521 31.7983 124.892 31.7983 125.288C31.7983 125.98 32.0722 126.612 32.6207 127.182L40.8184 135.379H71.9218C79.6674 135.379 85.9468 129.1 85.9468 121.354C85.9468 121.354 85.9468 111.394 85.9468 98.9871V91.4949L63.6492 69.0876Z" fill="url(#paint2_linear_5603_4416)"/>
<path d="M71.6503 98.3849C69.825 96.9253 67.408 96.1943 64.3993 96.1943C57.7898 96.1943 54.4849 99.2392 54.4849 105.329V116.32C54.4849 119.617 55.4621 122.013 57.3993 123.525L69.2539 135.38H71.9218C79.6674 135.38 85.9468 129.1 85.9468 121.355C85.9468 121.355 85.9468 117.963 85.9468 112.678L71.6503 98.3849Z" fill="url(#paint3_linear_5603_4416)"/>
<path d="M21.7344 91.2925V80.3015C21.7344 74.2117 25.0393 71.1669 31.6488 71.1669C34.6576 71.1669 37.0747 71.8979 38.8999 73.3575C40.7239 74.8184 41.6371 77.1336 41.6371 80.3012V91.2922C41.6371 94.4611 40.7242 96.7761 38.8999 98.2359C37.0745 99.6969 34.6576 100.427 31.6488 100.427C25.0393 100.427 21.7344 97.3819 21.7344 91.2925ZM27.007 91.1684C27.007 94.0242 28.554 95.4514 31.6486 95.4514C34.7917 95.4514 36.3639 94.0242 36.3639 91.1684V80.4255C36.3639 77.5711 34.7917 76.1428 31.6486 76.1428C28.5538 76.1428 27.007 77.5711 27.007 80.4255C27.0073 80.4255 27.0073 91.1684 27.007 91.1684ZM31.7986 125.288C31.7986 124.892 31.8972 124.521 32.0943 124.174L59.2587 69.6074C59.6534 68.7162 60.3937 68.2705 61.4798 68.2705C62.278 68.2705 63.0008 68.5433 63.6497 69.0876C64.2984 69.6329 64.6233 70.3012 64.6233 71.0925C64.6233 71.4896 64.5489 71.8851 64.4015 72.2806L37.2349 126.625C36.79 127.565 35.9514 128.036 34.7179 128.036C33.8689 128.036 33.1703 127.75 32.621 127.182C32.0725 126.612 31.7986 125.981 31.7986 125.288ZM54.4851 116.473V105.398C54.4851 99.262 57.7901 96.1941 64.3996 96.1941C67.4083 96.1941 69.8255 96.9309 71.6506 98.4022C73.4747 99.8735 74.3879 102.206 74.3879 105.398V116.473C74.3879 119.666 73.4747 121.998 71.6506 123.47C69.8253 124.941 67.4083 125.677 64.3996 125.677C57.7898 125.677 54.4851 122.609 54.4851 116.473ZM59.7578 116.369C59.7578 119.257 61.3048 120.701 64.3993 120.701C67.5425 120.701 69.1147 119.258 69.1147 116.369V105.501C69.1147 102.614 67.5425 101.169 64.3993 101.169C61.3045 101.169 59.7578 102.614 59.7578 105.501V116.369Z" fill="url(#paint4_linear_5603_4416)"/>
<path d="M85.9472 44.975V70.9377L54.4833 39.4739C54.2807 39.2106 54.0602 38.9546 53.8219 38.7129C53.7367 38.6276 53.6511 38.553 53.5693 38.4709C53.5125 38.4175 53.4554 38.3675 53.3951 38.3216C53.2458 38.1864 53.0891 38.0621 52.9363 37.9484C49.8923 35.6688 45.6287 35.7934 42.7271 38.3256V18.6035C46.0803 16.9319 50.0169 16.8931 53.3953 18.4895C53.7685 18.6637 54.1386 18.8627 54.4977 19.08L74.6748 31.27L80.0479 34.5202C83.7069 36.7321 85.9472 40.6934 85.9472 44.975Z" fill="url(#paint5_linear_5603_4416)"/>
<path d="M48.0611 48.0189C45.1153 48.0189 42.7271 45.6307 42.7271 42.6849V5.33402C42.7271 2.38823 45.1153 0 48.0611 0C51.0068 0 53.3951 2.38823 53.3951 5.33402V42.6846C53.3953 45.6307 51.0068 48.0189 48.0611 48.0189Z" fill="url(#paint6_linear_5603_4416)"/>
</g>
<defs>
<linearGradient id="paint0_linear_5603_4416" x1="62.5021" y1="14.167" x2="122.935" y2="103.535" gradientUnits="userSpaceOnUse">
<stop stop-color="white"/>
<stop offset="1" stop-color="white" stop-opacity="0"/>
</linearGradient>
<linearGradient id="paint1_linear_5603_4416" x1="50.2949" y1="104.481" x2="28.0501" y2="82.2358" gradientUnits="userSpaceOnUse">
<stop stop-color="#FDC347" stop-opacity="0"/>
<stop offset="1" stop-color="#F59500"/>
</linearGradient>
<linearGradient id="paint2_linear_5603_4416" x1="73.9131" y1="123.915" x2="39.6659" y2="89.6674" gradientUnits="userSpaceOnUse">
<stop stop-color="#FDC347" stop-opacity="0"/>
<stop offset="1" stop-color="#F59500"/>
</linearGradient>
<linearGradient id="paint3_linear_5603_4416" x1="89.497" y1="135.966" x2="55.599" y2="102.065" gradientUnits="userSpaceOnUse">
<stop stop-color="#FDC347" stop-opacity="0"/>
<stop offset="1" stop-color="#F59500"/>
</linearGradient>
<linearGradient id="paint4_linear_5603_4416" x1="48.06" y1="82.2144" x2="48.06" y2="148.936" gradientUnits="userSpaceOnUse">
<stop stop-color="white"/>
<stop offset="1" stop-color="#E2EDF2"/>
</linearGradient>
<linearGradient id="paint5_linear_5603_4416" x1="82.6258" y1="51.9129" x2="28.275" y2="21.6522" gradientUnits="userSpaceOnUse">
<stop stop-color="#FDC347"/>
<stop offset="1" stop-color="#F59500"/>
</linearGradient>
<linearGradient id="paint6_linear_5603_4416" x1="39.0002" y1="21.5" x2="55.0002" y2="44" gradientUnits="userSpaceOnUse">
<stop stop-color="#FF7A7A"/>
<stop offset="1" stop-color="#F75900"/>
</linearGradient>
<clipPath id="clip0_5603_4416">
<rect width="136" height="136" fill="white"/>
</clipPath>
</defs>
</svg>
